<svg width="122.88" height="97.07" xmlns="http://www.w3.org/2000/svg" xml:space="preserve" version="1.1">

 <g>
  <title>Layer 1</title>
  <path stroke="#000" fill="#ffeeaa" transform="rotate(-90, 35.1312, 20.4465)" id="svg_3" d="m17.96854,-12.45836l-0.00193,0.00366c9.47919,0 34.32912,14.72836 34.32912,32.90122c0,18.17287 -24.79027,32.85535 -34.26946,32.85535l-0.05772,0.04954l0,-65.80977z"/>
  <rect id="svg_4" height="5.78085" width="18.72304" y="74.15699" x="60.30288" stroke="#000" fill="#ffcc00"/>
  <g id="svg_1">
   <path id="svg_2" d="m100.28,27.01c-0.88,-0.09 -1.53,-0.88 -1.44,-1.77c0.09,-0.88 0.88,-1.53 1.77,-1.44c1.98,0.21 3.87,0.82 5.6,1.86c0.84,0.5 1.63,1.1 2.38,1.8c0.34,-0.83 0.76,-1.6 1.24,-2.32c1.07,-1.58 2.46,-2.88 4.1,-3.83c0.77,-0.45 1.76,-0.18 2.2,0.59c0.45,0.77 0.18,1.76 -0.59,2.2c-1.22,0.7 -2.25,1.67 -3.04,2.84c-0.77,1.15 -1.32,2.5 -1.59,4.01c-0.06,0.43 -0.28,0.83 -0.66,1.1c-0.72,0.52 -1.73,0.35 -2.25,-0.37c-1.01,-1.42 -2.18,-2.5 -3.45,-3.26c-1.31,-0.79 -2.75,-1.25 -4.27,-1.41l0,0zm-63.29,11.79l0,53.41l6.2,0l7.22,-7.94l-3.83,0l0,-4.85l11.86,0l-13.38,-14.83l3.6,-3.24l8.1,8.97l0,-0.35l19.83,0c0.87,0 1.64,0.46 2.07,1.15l5.86,8.29l11.01,0c0.73,0 1.39,0.32 1.83,0.84l12.06,11.96l13.46,0l0,4.85l-122.18,0l0,-4.85l32.52,0l0,-53.41l-31.33,0c-1.04,0 -1.89,-0.84 -1.89,-1.89c0,-0.06 0,-0.12 0.01,-0.19c0.08,-9.42 4.01,-17.93 10.32,-24.1c6.23,-6.07 14.77,-9.88 24.21,-10.01c0.18,-0.06 0.38,-0.09 0.58,-0.09c0.2,0 0.4,0.03 0.59,0.09c9.39,0.17 17.87,3.97 24.07,10.02c6.35,6.21 10.29,14.79 10.32,24.28c0,1.04 -0.84,1.88 -1.88,1.88l0,0.01l-31.23,0l0,0zm12.75,53.42l52.8,0l-8.01,-7.94l-37.57,0l-7.22,7.94l0,0zm15.23,-12.8l13.61,0l-3.24,-4.59l-14.51,0l4.14,4.59l0,0zm18.95,-71.47c-1.03,0.13 -1.97,-0.59 -2.11,-1.62c-0.13,-1.03 0.59,-1.97 1.62,-2.11c3.26,-0.43 6.41,-0.04 9.26,1.23c1.72,0.77 3.31,1.85 4.74,3.27c0.78,-1.75 1.84,-3.29 3.14,-4.58c2.15,-2.13 4.92,-3.56 8.08,-4.11c1.03,-0.18 2,0.52 2.18,1.54c0.18,1.03 -0.52,2 -1.54,2.18c-2.38,0.41 -4.46,1.48 -6.05,3.06c-1.58,1.56 -2.7,3.65 -3.19,6.12l-0.01,0c-0.09,0.47 -0.36,0.91 -0.79,1.2c-0.86,0.58 -2.03,0.36 -2.61,-0.5c-1.52,-2.24 -3.39,-3.8 -5.48,-4.73c-2.19,-1 -4.65,-1.29 -7.24,-0.95l0,0zm-26.77,7.38c-2.56,-2.5 -5.57,-4.58 -8.89,-6.09c1.28,1.85 2.36,3.96 3.24,6.29c2.05,5.41 3.05,12.06 3.15,19.5l11.62,0c-0.5,-7.68 -3.89,-14.59 -9.12,-19.7l0,0zm-16.57,-8.47c-1.17,-0.2 -2.36,-0.34 -3.57,-0.42l0,28.59l13.88,0c-0.09,-6.98 -1.02,-13.18 -2.91,-18.17c-1.68,-4.45 -4.12,-7.9 -7.4,-10l0,0zm-7.35,-0.43c-1.19,0.07 -2.37,0.2 -3.52,0.39c-3.32,2.11 -5.79,5.59 -7.48,10.1c-1.87,4.97 -2.79,11.16 -2.88,18.1l13.88,0l0,-28.59l0,0zm-11.18,2.72c-3.4,1.53 -6.48,3.63 -9.09,6.19c-5.23,5.11 -8.62,12.02 -9.12,19.69l11.76,0c0.09,-7.4 1.09,-14.03 3.12,-19.43c0.89,-2.4 2,-4.57 3.33,-6.45l0,0z"/>
  </g>
 </g>
</svg>